<mxfile host="app.diagrams.net" agent="Mozilla/5.0 (Windows NT 10.0; Win64; x64) AppleWebKit/537.36 (KHTML, like Gecko) Chrome/134.0.0.0 Safari/537.36" version="26.1.0">
  <diagram name="Page-1" id="fSu1nvBmL-WLOgnBngZi">
    <mxGraphModel dx="2759" dy="2309" grid="1" gridSize="10" guides="1" tooltips="1" connect="1" arrows="1" fold="1" page="1" pageScale="1" pageWidth="850" pageHeight="1100" math="0" shadow="0">
      <root>
        <mxCell id="0" />
        <mxCell id="1" parent="0" />
        <mxCell id="gEsfyHYxPAKIMErTJ0Sl-6" value="" style="rounded=0;whiteSpace=wrap;html=1;align=left;" parent="1" vertex="1">
          <mxGeometry x="120" y="120" width="370" height="330" as="geometry" />
        </mxCell>
        <mxCell id="gEsfyHYxPAKIMErTJ0Sl-7" value="" style="rounded=0;whiteSpace=wrap;html=1;" parent="1" vertex="1">
          <mxGeometry x="130" y="130" width="110" height="180" as="geometry" />
        </mxCell>
        <mxCell id="gEsfyHYxPAKIMErTJ0Sl-8" value="" style="rounded=0;whiteSpace=wrap;html=1;" parent="1" vertex="1">
          <mxGeometry x="250" y="130" width="110" height="180" as="geometry" />
        </mxCell>
        <mxCell id="gEsfyHYxPAKIMErTJ0Sl-9" value="" style="rounded=0;whiteSpace=wrap;html=1;" parent="1" vertex="1">
          <mxGeometry x="370" y="130" width="110" height="180" as="geometry" />
        </mxCell>
        <mxCell id="gEsfyHYxPAKIMErTJ0Sl-16" value="" style="shape=image;verticalLabelPosition=bottom;labelBackgroundColor=default;verticalAlign=top;aspect=fixed;imageAspect=0;image=https://231webdev.com/wp-content/uploads/2015/05/RaspberryPi-logo.png;" parent="1" vertex="1">
          <mxGeometry x="454" y="277.21000000000004" width="20" height="25.59" as="geometry" />
        </mxCell>
        <mxCell id="gEsfyHYxPAKIMErTJ0Sl-17" value="" style="shape=image;verticalLabelPosition=bottom;labelBackgroundColor=default;verticalAlign=top;aspect=fixed;imageAspect=0;image=https://231webdev.com/wp-content/uploads/2015/05/RaspberryPi-logo.png;" parent="1" vertex="1">
          <mxGeometry x="214" y="274.99999999999994" width="20" height="25.59" as="geometry" />
        </mxCell>
        <mxCell id="gEsfyHYxPAKIMErTJ0Sl-19" value="" style="shape=image;verticalLabelPosition=bottom;labelBackgroundColor=default;verticalAlign=top;aspect=fixed;imageAspect=0;image=https://www.mouser.com/images/suppliers/logos/google-coral.png;" parent="1" vertex="1">
          <mxGeometry x="332.28" y="285" width="22.22" height="10" as="geometry" />
        </mxCell>
        <mxCell id="gEsfyHYxPAKIMErTJ0Sl-25" style="edgeStyle=orthogonalEdgeStyle;rounded=0;orthogonalLoop=1;jettySize=auto;html=1;exitX=1;exitY=0.5;exitDx=0;exitDy=0;exitPerimeter=0;entryX=0.75;entryY=1;entryDx=0;entryDy=0;" parent="1" source="gEsfyHYxPAKIMErTJ0Sl-20" edge="1">
          <mxGeometry relative="1" as="geometry">
            <mxPoint x="207.5" y="315" as="targetPoint" />
          </mxGeometry>
        </mxCell>
        <mxCell id="gEsfyHYxPAKIMErTJ0Sl-20" value="" style="points=[[0,0.5,0],[0.19,0.02,0],[0.59,0,0],[0.985,0.02,0],[1,0.5,0],[0.985,0.98,0],[0.59,1,0],[0.19,0.98,0]];verticalLabelPosition=bottom;sketch=0;html=1;verticalAlign=top;aspect=fixed;align=center;pointerEvents=1;shape=mxgraph.cisco19.camera;fillColor=#080808;strokeColor=none;" parent="1" vertex="1">
          <mxGeometry x="125" y="365" width="54" height="30" as="geometry" />
        </mxCell>
        <mxCell id="gEsfyHYxPAKIMErTJ0Sl-26" style="edgeStyle=orthogonalEdgeStyle;rounded=0;orthogonalLoop=1;jettySize=auto;html=1;exitX=1;exitY=0.5;exitDx=0;exitDy=0;exitPerimeter=0;entryX=0.75;entryY=1;entryDx=0;entryDy=0;" parent="1" source="gEsfyHYxPAKIMErTJ0Sl-21" edge="1">
          <mxGeometry relative="1" as="geometry">
            <mxPoint x="207.5" y="315" as="targetPoint" />
          </mxGeometry>
        </mxCell>
        <mxCell id="gEsfyHYxPAKIMErTJ0Sl-21" value="" style="points=[[0,0.5,0],[0.19,0.02,0],[0.59,0,0],[0.985,0.02,0],[1,0.5,0],[0.985,0.98,0],[0.59,1,0],[0.19,0.98,0]];verticalLabelPosition=bottom;sketch=0;html=1;verticalAlign=top;aspect=fixed;align=center;pointerEvents=1;shape=mxgraph.cisco19.camera;fillColor=#080808;strokeColor=none;" parent="1" vertex="1">
          <mxGeometry x="125" y="325" width="54" height="30" as="geometry" />
        </mxCell>
        <mxCell id="gEsfyHYxPAKIMErTJ0Sl-23" style="edgeStyle=orthogonalEdgeStyle;rounded=0;orthogonalLoop=1;jettySize=auto;html=1;exitX=1;exitY=0.5;exitDx=0;exitDy=0;entryX=0.75;entryY=1;entryDx=0;entryDy=0;" parent="1" source="gEsfyHYxPAKIMErTJ0Sl-22" edge="1">
          <mxGeometry relative="1" as="geometry">
            <mxPoint x="207.5" y="315" as="targetPoint" />
          </mxGeometry>
        </mxCell>
        <mxCell id="gEsfyHYxPAKIMErTJ0Sl-22" value="NICLA" style="rounded=0;whiteSpace=wrap;html=1;" parent="1" vertex="1">
          <mxGeometry x="125" y="405" width="60" height="40" as="geometry" />
        </mxCell>
        <mxCell id="gEsfyHYxPAKIMErTJ0Sl-34" value="&lt;b&gt;&lt;font style=&quot;font-size: 20px;&quot;&gt;WORKSTATION 1&lt;/font&gt;&lt;/b&gt;" style="text;html=1;align=center;verticalAlign=middle;resizable=0;points=[];autosize=1;strokeColor=none;fillColor=none;" parent="1" vertex="1">
          <mxGeometry x="210" y="470" width="190" height="40" as="geometry" />
        </mxCell>
        <mxCell id="gEsfyHYxPAKIMErTJ0Sl-35" value="Cam 1" style="text;html=1;align=center;verticalAlign=middle;resizable=0;points=[];autosize=1;strokeColor=none;fillColor=none;" parent="1" vertex="1">
          <mxGeometry x="125" y="324.75" width="60" height="30" as="geometry" />
        </mxCell>
        <mxCell id="gEsfyHYxPAKIMErTJ0Sl-36" value="Cam 2" style="text;html=1;align=center;verticalAlign=middle;resizable=0;points=[];autosize=1;strokeColor=none;fillColor=none;" parent="1" vertex="1">
          <mxGeometry x="125" y="365" width="60" height="30" as="geometry" />
        </mxCell>
        <mxCell id="gEsfyHYxPAKIMErTJ0Sl-115" value="&lt;b&gt;&lt;font style=&quot;font-size: 14px;&quot;&gt;INPUT&lt;/font&gt;&lt;/b&gt;" style="text;html=1;align=left;verticalAlign=middle;whiteSpace=wrap;rounded=0;" parent="1" vertex="1">
          <mxGeometry x="135" y="272.79" width="70" height="30" as="geometry" />
        </mxCell>
        <mxCell id="gEsfyHYxPAKIMErTJ0Sl-116" value="&lt;b&gt;&lt;font style=&quot;font-size: 14px;&quot;&gt;COMPUTE&lt;/font&gt;&lt;/b&gt;" style="text;html=1;align=left;verticalAlign=middle;whiteSpace=wrap;rounded=0;" parent="1" vertex="1">
          <mxGeometry x="255.5" y="275" width="75.5" height="30" as="geometry" />
        </mxCell>
        <mxCell id="gEsfyHYxPAKIMErTJ0Sl-117" value="&lt;b&gt;&lt;font style=&quot;font-size: 14px;&quot;&gt;OUTPUT&lt;/font&gt;&lt;/b&gt;" style="text;html=1;align=left;verticalAlign=middle;whiteSpace=wrap;rounded=0;" parent="1" vertex="1">
          <mxGeometry x="375" y="275" width="80" height="30" as="geometry" />
        </mxCell>
        <mxCell id="gEsfyHYxPAKIMErTJ0Sl-120" value="&lt;b&gt;Neighbors Identification&amp;nbsp;&lt;/b&gt;" style="rounded=0;whiteSpace=wrap;html=1;" parent="1" vertex="1">
          <mxGeometry x="135" y="135.66" width="99" height="40" as="geometry" />
        </mxCell>
        <mxCell id="gEsfyHYxPAKIMErTJ0Sl-122" value="&lt;b&gt;&lt;font&gt;Hand Tracking&lt;/font&gt;&lt;/b&gt;" style="rounded=0;whiteSpace=wrap;html=1;" parent="1" vertex="1">
          <mxGeometry x="255.5" y="135.66" width="99" height="40" as="geometry" />
        </mxCell>
        <mxCell id="gEsfyHYxPAKIMErTJ0Sl-123" value="&lt;b&gt;Workstation Interface&lt;/b&gt;" style="rounded=0;whiteSpace=wrap;html=1;" parent="1" vertex="1">
          <mxGeometry x="376" y="179.99" width="99" height="40" as="geometry" />
        </mxCell>
        <mxCell id="gEsfyHYxPAKIMErTJ0Sl-180" style="edgeStyle=orthogonalEdgeStyle;rounded=0;orthogonalLoop=1;jettySize=auto;html=1;exitX=0;exitY=0.5;exitDx=0;exitDy=0;entryX=1;entryY=0.5;entryDx=0;entryDy=0;" parent="1" source="gEsfyHYxPAKIMErTJ0Sl-174" edge="1" target="gEsfyHYxPAKIMErTJ0Sl-164">
          <mxGeometry relative="1" as="geometry">
            <mxPoint x="-20" y="274.34000000000003" as="targetPoint" />
            <Array as="points">
              <mxPoint x="-5" y="198.34" />
              <mxPoint x="-5" y="200.34" />
              <mxPoint x="-80" y="200.34" />
            </Array>
          </mxGeometry>
        </mxCell>
        <mxCell id="gEsfyHYxPAKIMErTJ0Sl-181" value="On merge&lt;div&gt;triggers&lt;/div&gt;" style="edgeLabel;html=1;align=center;verticalAlign=middle;resizable=0;points=[];" parent="gEsfyHYxPAKIMErTJ0Sl-180" vertex="1" connectable="0">
          <mxGeometry x="-0.1225" relative="1" as="geometry">
            <mxPoint as="offset" />
          </mxGeometry>
        </mxCell>
        <mxCell id="gEsfyHYxPAKIMErTJ0Sl-182" style="edgeStyle=orthogonalEdgeStyle;rounded=0;orthogonalLoop=1;jettySize=auto;html=1;exitX=0.5;exitY=0;exitDx=0;exitDy=0;entryX=0.5;entryY=1;entryDx=0;entryDy=0;" parent="1" source="gEsfyHYxPAKIMErTJ0Sl-164" target="gEsfyHYxPAKIMErTJ0Sl-178" edge="1">
          <mxGeometry relative="1" as="geometry">
            <Array as="points">
              <mxPoint x="-110" y="114.34" />
              <mxPoint x="-110" y="114.34" />
            </Array>
          </mxGeometry>
        </mxCell>
        <mxCell id="gEsfyHYxPAKIMErTJ0Sl-183" value="Upload Images" style="edgeLabel;html=1;align=center;verticalAlign=middle;resizable=0;points=[];" parent="gEsfyHYxPAKIMErTJ0Sl-182" vertex="1" connectable="0">
          <mxGeometry x="0.1012" y="1" relative="1" as="geometry">
            <mxPoint x="1" y="5" as="offset" />
          </mxGeometry>
        </mxCell>
        <mxCell id="FbwTpNLZBk-BrfY8ni0u-1" value="" style="image;html=1;image=img/lib/clip_art/networking/Router_Icon_128x128.png" vertex="1" parent="1">
          <mxGeometry x="280" y="385" width="50" height="60" as="geometry" />
        </mxCell>
        <mxCell id="FbwTpNLZBk-BrfY8ni0u-4" value="&lt;b&gt;Quality Detection&lt;/b&gt;" style="rounded=0;whiteSpace=wrap;html=1;" vertex="1" parent="1">
          <mxGeometry x="255.5" y="180.66" width="99" height="40" as="geometry" />
        </mxCell>
        <mxCell id="FbwTpNLZBk-BrfY8ni0u-5" value="&lt;b&gt;Display Projector&lt;/b&gt;" style="rounded=0;whiteSpace=wrap;html=1;" vertex="1" parent="1">
          <mxGeometry x="375" y="225" width="99" height="40" as="geometry" />
        </mxCell>
        <mxCell id="FbwTpNLZBk-BrfY8ni0u-6" value="&lt;b&gt;Aggregator Info&lt;br&gt;&lt;/b&gt;" style="rounded=0;whiteSpace=wrap;html=1;" vertex="1" parent="1">
          <mxGeometry x="376" y="135.66000000000003" width="99" height="40" as="geometry" />
        </mxCell>
        <mxCell id="FbwTpNLZBk-BrfY8ni0u-7" value="" style="group" vertex="1" connectable="0" parent="1">
          <mxGeometry x="410" y="365" width="70" height="45" as="geometry" />
        </mxCell>
        <mxCell id="gEsfyHYxPAKIMErTJ0Sl-29" value="" style="fontColor=#0066CC;verticalAlign=top;verticalLabelPosition=bottom;labelPosition=center;align=center;html=1;outlineConnect=0;fillColor=default;strokeColor=default;gradientColor=none;gradientDirection=north;strokeWidth=10;shape=mxgraph.networks.video_projector;perimeterSpacing=0;" parent="FbwTpNLZBk-BrfY8ni0u-7" vertex="1">
          <mxGeometry x="10" width="50" height="20" as="geometry" />
        </mxCell>
        <mxCell id="gEsfyHYxPAKIMErTJ0Sl-38" value="Projector" style="text;html=1;align=center;verticalAlign=middle;resizable=0;points=[];autosize=1;strokeColor=none;fillColor=none;" parent="FbwTpNLZBk-BrfY8ni0u-7" vertex="1">
          <mxGeometry y="15" width="70" height="30" as="geometry" />
        </mxCell>
        <mxCell id="FbwTpNLZBk-BrfY8ni0u-8" value="" style="group" vertex="1" connectable="0" parent="1">
          <mxGeometry x="419.85" y="324.75" width="60" height="30" as="geometry" />
        </mxCell>
        <mxCell id="gEsfyHYxPAKIMErTJ0Sl-28" value="" style="html=1;verticalLabelPosition=bottom;align=center;labelBackgroundColor=#ffffff;verticalAlign=top;strokeWidth=2;strokeColor=#080808;shadow=0;dashed=0;shape=mxgraph.ios7.icons.monitor;fillColor=default;" parent="FbwTpNLZBk-BrfY8ni0u-8" vertex="1">
          <mxGeometry x="5.149999999999977" y="0.25" width="50" height="29.75" as="geometry" />
        </mxCell>
        <mxCell id="gEsfyHYxPAKIMErTJ0Sl-37" value="Monitor" style="text;html=1;align=center;verticalAlign=middle;resizable=0;points=[];autosize=1;strokeColor=none;fillColor=none;" parent="FbwTpNLZBk-BrfY8ni0u-8" vertex="1">
          <mxGeometry width="60" height="30" as="geometry" />
        </mxCell>
        <mxCell id="FbwTpNLZBk-BrfY8ni0u-9" value="&lt;b&gt;Message Broker&lt;/b&gt;" style="rounded=0;whiteSpace=wrap;html=1;" vertex="1" parent="1">
          <mxGeometry x="135.5" y="179.99" width="99" height="40" as="geometry" />
        </mxCell>
        <mxCell id="FbwTpNLZBk-BrfY8ni0u-11" value="" style="endArrow=classic;html=1;rounded=0;entryX=0.25;entryY=1;entryDx=0;entryDy=0;" edge="1" parent="1" target="gEsfyHYxPAKIMErTJ0Sl-9">
          <mxGeometry width="50" height="50" relative="1" as="geometry">
            <mxPoint x="397" y="376" as="sourcePoint" />
            <mxPoint x="400" y="370" as="targetPoint" />
          </mxGeometry>
        </mxCell>
        <mxCell id="FbwTpNLZBk-BrfY8ni0u-12" value="" style="endArrow=none;html=1;rounded=0;" edge="1" parent="1">
          <mxGeometry width="50" height="50" relative="1" as="geometry">
            <mxPoint x="420" y="376" as="sourcePoint" />
            <mxPoint x="397" y="376" as="targetPoint" />
          </mxGeometry>
        </mxCell>
        <mxCell id="FbwTpNLZBk-BrfY8ni0u-13" value="" style="endArrow=none;html=1;rounded=0;" edge="1" parent="1">
          <mxGeometry width="50" height="50" relative="1" as="geometry">
            <mxPoint x="420" y="339.67" as="sourcePoint" />
            <mxPoint x="397" y="339.67" as="targetPoint" />
          </mxGeometry>
        </mxCell>
        <mxCell id="FbwTpNLZBk-BrfY8ni0u-16" value="" style="endArrow=classic;startArrow=classic;html=1;rounded=0;entryX=0.5;entryY=1;entryDx=0;entryDy=0;" edge="1" parent="1" target="gEsfyHYxPAKIMErTJ0Sl-8">
          <mxGeometry width="50" height="50" relative="1" as="geometry">
            <mxPoint x="305" y="400" as="sourcePoint" />
            <mxPoint x="360" y="470" as="targetPoint" />
          </mxGeometry>
        </mxCell>
        <mxCell id="FbwTpNLZBk-BrfY8ni0u-71" value="VLAN 1" style="edgeLabel;html=1;align=center;verticalAlign=middle;resizable=0;points=[];" vertex="1" connectable="0" parent="FbwTpNLZBk-BrfY8ni0u-16">
          <mxGeometry x="-0.2778" y="-1" relative="1" as="geometry">
            <mxPoint as="offset" />
          </mxGeometry>
        </mxCell>
        <mxCell id="FbwTpNLZBk-BrfY8ni0u-17" value="" style="endArrow=classic;html=1;rounded=0;entryX=0.881;entryY=1.008;entryDx=0;entryDy=0;entryPerimeter=0;" edge="1" parent="1" target="gEsfyHYxPAKIMErTJ0Sl-7">
          <mxGeometry width="50" height="50" relative="1" as="geometry">
            <mxPoint x="305" y="350" as="sourcePoint" />
            <mxPoint x="330" y="500" as="targetPoint" />
            <Array as="points">
              <mxPoint x="227" y="350" />
            </Array>
          </mxGeometry>
        </mxCell>
        <mxCell id="FbwTpNLZBk-BrfY8ni0u-18" value="" style="endArrow=classic;html=1;rounded=0;entryX=0.881;entryY=1.008;entryDx=0;entryDy=0;entryPerimeter=0;" edge="1" parent="1">
          <mxGeometry width="50" height="50" relative="1" as="geometry">
            <mxPoint x="304" y="350" as="sourcePoint" />
            <mxPoint x="382" y="311" as="targetPoint" />
            <Array as="points">
              <mxPoint x="382" y="350" />
            </Array>
          </mxGeometry>
        </mxCell>
        <mxCell id="FbwTpNLZBk-BrfY8ni0u-20" value="" style="rounded=0;whiteSpace=wrap;html=1;align=left;" vertex="1" parent="1">
          <mxGeometry x="559.9999999999999" y="120" width="370" height="330" as="geometry" />
        </mxCell>
        <mxCell id="FbwTpNLZBk-BrfY8ni0u-21" value="" style="rounded=0;whiteSpace=wrap;html=1;" vertex="1" parent="1">
          <mxGeometry x="569.9999999999999" y="130" width="110" height="180" as="geometry" />
        </mxCell>
        <mxCell id="FbwTpNLZBk-BrfY8ni0u-22" value="" style="rounded=0;whiteSpace=wrap;html=1;" vertex="1" parent="1">
          <mxGeometry x="689.9999999999999" y="130" width="110" height="180" as="geometry" />
        </mxCell>
        <mxCell id="FbwTpNLZBk-BrfY8ni0u-23" value="" style="rounded=0;whiteSpace=wrap;html=1;" vertex="1" parent="1">
          <mxGeometry x="809.9999999999999" y="130" width="110" height="180" as="geometry" />
        </mxCell>
        <mxCell id="FbwTpNLZBk-BrfY8ni0u-24" value="" style="shape=image;verticalLabelPosition=bottom;labelBackgroundColor=default;verticalAlign=top;aspect=fixed;imageAspect=0;image=https://231webdev.com/wp-content/uploads/2015/05/RaspberryPi-logo.png;" vertex="1" parent="1">
          <mxGeometry x="893.9999999999999" y="277.21000000000004" width="20" height="25.59" as="geometry" />
        </mxCell>
        <mxCell id="FbwTpNLZBk-BrfY8ni0u-25" value="" style="shape=image;verticalLabelPosition=bottom;labelBackgroundColor=default;verticalAlign=top;aspect=fixed;imageAspect=0;image=https://231webdev.com/wp-content/uploads/2015/05/RaspberryPi-logo.png;" vertex="1" parent="1">
          <mxGeometry x="653.9999999999999" y="274.99999999999994" width="20" height="25.59" as="geometry" />
        </mxCell>
        <mxCell id="FbwTpNLZBk-BrfY8ni0u-26" value="" style="shape=image;verticalLabelPosition=bottom;labelBackgroundColor=default;verticalAlign=top;aspect=fixed;imageAspect=0;image=https://www.mouser.com/images/suppliers/logos/google-coral.png;" vertex="1" parent="1">
          <mxGeometry x="772.2799999999999" y="285" width="22.22" height="10" as="geometry" />
        </mxCell>
        <mxCell id="FbwTpNLZBk-BrfY8ni0u-27" style="edgeStyle=orthogonalEdgeStyle;rounded=0;orthogonalLoop=1;jettySize=auto;html=1;exitX=1;exitY=0.5;exitDx=0;exitDy=0;exitPerimeter=0;entryX=0.75;entryY=1;entryDx=0;entryDy=0;" edge="1" parent="1" source="FbwTpNLZBk-BrfY8ni0u-28">
          <mxGeometry relative="1" as="geometry">
            <mxPoint x="647.4999999999999" y="315" as="targetPoint" />
          </mxGeometry>
        </mxCell>
        <mxCell id="FbwTpNLZBk-BrfY8ni0u-28" value="" style="points=[[0,0.5,0],[0.19,0.02,0],[0.59,0,0],[0.985,0.02,0],[1,0.5,0],[0.985,0.98,0],[0.59,1,0],[0.19,0.98,0]];verticalLabelPosition=bottom;sketch=0;html=1;verticalAlign=top;aspect=fixed;align=center;pointerEvents=1;shape=mxgraph.cisco19.camera;fillColor=#080808;strokeColor=none;" vertex="1" parent="1">
          <mxGeometry x="564.9999999999999" y="365" width="54" height="30" as="geometry" />
        </mxCell>
        <mxCell id="FbwTpNLZBk-BrfY8ni0u-29" style="edgeStyle=orthogonalEdgeStyle;rounded=0;orthogonalLoop=1;jettySize=auto;html=1;exitX=1;exitY=0.5;exitDx=0;exitDy=0;exitPerimeter=0;entryX=0.75;entryY=1;entryDx=0;entryDy=0;" edge="1" parent="1" source="FbwTpNLZBk-BrfY8ni0u-30">
          <mxGeometry relative="1" as="geometry">
            <mxPoint x="647.4999999999999" y="315" as="targetPoint" />
          </mxGeometry>
        </mxCell>
        <mxCell id="FbwTpNLZBk-BrfY8ni0u-30" value="" style="points=[[0,0.5,0],[0.19,0.02,0],[0.59,0,0],[0.985,0.02,0],[1,0.5,0],[0.985,0.98,0],[0.59,1,0],[0.19,0.98,0]];verticalLabelPosition=bottom;sketch=0;html=1;verticalAlign=top;aspect=fixed;align=center;pointerEvents=1;shape=mxgraph.cisco19.camera;fillColor=#080808;strokeColor=none;" vertex="1" parent="1">
          <mxGeometry x="564.9999999999999" y="325" width="54" height="30" as="geometry" />
        </mxCell>
        <mxCell id="FbwTpNLZBk-BrfY8ni0u-31" style="edgeStyle=orthogonalEdgeStyle;rounded=0;orthogonalLoop=1;jettySize=auto;html=1;exitX=1;exitY=0.5;exitDx=0;exitDy=0;entryX=0.75;entryY=1;entryDx=0;entryDy=0;" edge="1" parent="1" source="FbwTpNLZBk-BrfY8ni0u-32">
          <mxGeometry relative="1" as="geometry">
            <mxPoint x="647.4999999999999" y="315" as="targetPoint" />
          </mxGeometry>
        </mxCell>
        <mxCell id="FbwTpNLZBk-BrfY8ni0u-32" value="NICLA" style="rounded=0;whiteSpace=wrap;html=1;" vertex="1" parent="1">
          <mxGeometry x="564.9999999999999" y="405" width="60" height="40" as="geometry" />
        </mxCell>
        <mxCell id="FbwTpNLZBk-BrfY8ni0u-33" value="&lt;b&gt;&lt;font style=&quot;font-size: 20px;&quot;&gt;WORKSTATION 2&lt;/font&gt;&lt;/b&gt;" style="text;html=1;align=center;verticalAlign=middle;resizable=0;points=[];autosize=1;strokeColor=none;fillColor=none;" vertex="1" parent="1">
          <mxGeometry x="649.9999999999999" y="470" width="190" height="40" as="geometry" />
        </mxCell>
        <mxCell id="FbwTpNLZBk-BrfY8ni0u-34" value="Cam 1" style="text;html=1;align=center;verticalAlign=middle;resizable=0;points=[];autosize=1;strokeColor=none;fillColor=none;" vertex="1" parent="1">
          <mxGeometry x="564.9999999999999" y="324.75" width="60" height="30" as="geometry" />
        </mxCell>
        <mxCell id="FbwTpNLZBk-BrfY8ni0u-35" value="Cam 2" style="text;html=1;align=center;verticalAlign=middle;resizable=0;points=[];autosize=1;strokeColor=none;fillColor=none;" vertex="1" parent="1">
          <mxGeometry x="564.9999999999999" y="365" width="60" height="30" as="geometry" />
        </mxCell>
        <mxCell id="FbwTpNLZBk-BrfY8ni0u-36" value="&lt;b&gt;&lt;font style=&quot;font-size: 14px;&quot;&gt;INPUT&lt;/font&gt;&lt;/b&gt;" style="text;html=1;align=left;verticalAlign=middle;whiteSpace=wrap;rounded=0;" vertex="1" parent="1">
          <mxGeometry x="574.9999999999999" y="272.79" width="70" height="30" as="geometry" />
        </mxCell>
        <mxCell id="FbwTpNLZBk-BrfY8ni0u-37" value="&lt;b&gt;&lt;font style=&quot;font-size: 14px;&quot;&gt;COMPUTE&lt;/font&gt;&lt;/b&gt;" style="text;html=1;align=left;verticalAlign=middle;whiteSpace=wrap;rounded=0;" vertex="1" parent="1">
          <mxGeometry x="695.4999999999999" y="275" width="75.5" height="30" as="geometry" />
        </mxCell>
        <mxCell id="FbwTpNLZBk-BrfY8ni0u-38" value="&lt;b&gt;&lt;font style=&quot;font-size: 14px;&quot;&gt;OUTPUT&lt;/font&gt;&lt;/b&gt;" style="text;html=1;align=left;verticalAlign=middle;whiteSpace=wrap;rounded=0;" vertex="1" parent="1">
          <mxGeometry x="814.9999999999999" y="275" width="80" height="30" as="geometry" />
        </mxCell>
        <mxCell id="FbwTpNLZBk-BrfY8ni0u-39" value="&lt;b&gt;Neighbors Identification&amp;nbsp;&lt;/b&gt;" style="rounded=0;whiteSpace=wrap;html=1;" vertex="1" parent="1">
          <mxGeometry x="574.9999999999999" y="135.66" width="99" height="40" as="geometry" />
        </mxCell>
        <mxCell id="FbwTpNLZBk-BrfY8ni0u-40" value="&lt;b&gt;&lt;font&gt;Hand Tracking&lt;/font&gt;&lt;/b&gt;" style="rounded=0;whiteSpace=wrap;html=1;" vertex="1" parent="1">
          <mxGeometry x="695.4999999999999" y="135.66" width="99" height="40" as="geometry" />
        </mxCell>
        <mxCell id="FbwTpNLZBk-BrfY8ni0u-41" value="&lt;b&gt;Workstation Interface&lt;/b&gt;" style="rounded=0;whiteSpace=wrap;html=1;" vertex="1" parent="1">
          <mxGeometry x="815.9999999999999" y="179.99" width="99" height="40" as="geometry" />
        </mxCell>
        <mxCell id="FbwTpNLZBk-BrfY8ni0u-42" value="" style="image;html=1;image=img/lib/clip_art/networking/Router_Icon_128x128.png" vertex="1" parent="1">
          <mxGeometry x="719.9999999999999" y="385" width="50" height="60" as="geometry" />
        </mxCell>
        <mxCell id="FbwTpNLZBk-BrfY8ni0u-43" value="&lt;b&gt;Quality Detection&lt;/b&gt;" style="rounded=0;whiteSpace=wrap;html=1;" vertex="1" parent="1">
          <mxGeometry x="695.4999999999999" y="180.66" width="99" height="40" as="geometry" />
        </mxCell>
        <mxCell id="FbwTpNLZBk-BrfY8ni0u-44" value="&lt;b&gt;Display Projector&lt;/b&gt;" style="rounded=0;whiteSpace=wrap;html=1;" vertex="1" parent="1">
          <mxGeometry x="814.9999999999999" y="225" width="99" height="40" as="geometry" />
        </mxCell>
        <mxCell id="FbwTpNLZBk-BrfY8ni0u-45" value="&lt;b&gt;Aggregator Info&lt;br&gt;&lt;/b&gt;" style="rounded=0;whiteSpace=wrap;html=1;" vertex="1" parent="1">
          <mxGeometry x="815.9999999999999" y="135.66000000000003" width="99" height="40" as="geometry" />
        </mxCell>
        <mxCell id="FbwTpNLZBk-BrfY8ni0u-46" value="" style="group" vertex="1" connectable="0" parent="1">
          <mxGeometry x="849.9999999999999" y="365" width="70" height="45" as="geometry" />
        </mxCell>
        <mxCell id="FbwTpNLZBk-BrfY8ni0u-47" value="" style="fontColor=#0066CC;verticalAlign=top;verticalLabelPosition=bottom;labelPosition=center;align=center;html=1;outlineConnect=0;fillColor=default;strokeColor=default;gradientColor=none;gradientDirection=north;strokeWidth=10;shape=mxgraph.networks.video_projector;perimeterSpacing=0;" vertex="1" parent="FbwTpNLZBk-BrfY8ni0u-46">
          <mxGeometry x="10" width="50" height="20" as="geometry" />
        </mxCell>
        <mxCell id="FbwTpNLZBk-BrfY8ni0u-48" value="Projector" style="text;html=1;align=center;verticalAlign=middle;resizable=0;points=[];autosize=1;strokeColor=none;fillColor=none;" vertex="1" parent="FbwTpNLZBk-BrfY8ni0u-46">
          <mxGeometry y="15" width="70" height="30" as="geometry" />
        </mxCell>
        <mxCell id="FbwTpNLZBk-BrfY8ni0u-49" value="" style="group" vertex="1" connectable="0" parent="1">
          <mxGeometry x="859.85" y="324.75" width="60" height="30" as="geometry" />
        </mxCell>
        <mxCell id="FbwTpNLZBk-BrfY8ni0u-50" value="" style="html=1;verticalLabelPosition=bottom;align=center;labelBackgroundColor=#ffffff;verticalAlign=top;strokeWidth=2;strokeColor=#080808;shadow=0;dashed=0;shape=mxgraph.ios7.icons.monitor;fillColor=default;" vertex="1" parent="FbwTpNLZBk-BrfY8ni0u-49">
          <mxGeometry x="5.149999999999977" y="0.25" width="50" height="29.75" as="geometry" />
        </mxCell>
        <mxCell id="FbwTpNLZBk-BrfY8ni0u-51" value="Monitor" style="text;html=1;align=center;verticalAlign=middle;resizable=0;points=[];autosize=1;strokeColor=none;fillColor=none;" vertex="1" parent="FbwTpNLZBk-BrfY8ni0u-49">
          <mxGeometry width="60" height="30" as="geometry" />
        </mxCell>
        <mxCell id="FbwTpNLZBk-BrfY8ni0u-52" value="&lt;b&gt;Message Broker&lt;/b&gt;" style="rounded=0;whiteSpace=wrap;html=1;" vertex="1" parent="1">
          <mxGeometry x="575.4999999999999" y="179.99" width="99" height="40" as="geometry" />
        </mxCell>
        <mxCell id="FbwTpNLZBk-BrfY8ni0u-53" value="" style="endArrow=classic;html=1;rounded=0;entryX=0.25;entryY=1;entryDx=0;entryDy=0;" edge="1" parent="1" target="FbwTpNLZBk-BrfY8ni0u-23">
          <mxGeometry width="50" height="50" relative="1" as="geometry">
            <mxPoint x="836.9999999999999" y="376" as="sourcePoint" />
            <mxPoint x="839.9999999999999" y="370" as="targetPoint" />
          </mxGeometry>
        </mxCell>
        <mxCell id="FbwTpNLZBk-BrfY8ni0u-54" value="" style="endArrow=none;html=1;rounded=0;" edge="1" parent="1">
          <mxGeometry width="50" height="50" relative="1" as="geometry">
            <mxPoint x="859.9999999999999" y="376" as="sourcePoint" />
            <mxPoint x="836.9999999999999" y="376" as="targetPoint" />
          </mxGeometry>
        </mxCell>
        <mxCell id="FbwTpNLZBk-BrfY8ni0u-55" value="" style="endArrow=none;html=1;rounded=0;" edge="1" parent="1">
          <mxGeometry width="50" height="50" relative="1" as="geometry">
            <mxPoint x="859.9999999999999" y="339.67" as="sourcePoint" />
            <mxPoint x="836.9999999999999" y="339.67" as="targetPoint" />
          </mxGeometry>
        </mxCell>
        <mxCell id="FbwTpNLZBk-BrfY8ni0u-56" value="" style="endArrow=classic;startArrow=classic;html=1;rounded=0;entryX=0.5;entryY=1;entryDx=0;entryDy=0;" edge="1" parent="1" target="FbwTpNLZBk-BrfY8ni0u-22">
          <mxGeometry width="50" height="50" relative="1" as="geometry">
            <mxPoint x="744.9999999999999" y="400" as="sourcePoint" />
            <mxPoint x="799.9999999999999" y="470" as="targetPoint" />
          </mxGeometry>
        </mxCell>
        <mxCell id="FbwTpNLZBk-BrfY8ni0u-72" value="VLAN 2" style="edgeLabel;html=1;align=center;verticalAlign=middle;resizable=0;points=[];" vertex="1" connectable="0" parent="FbwTpNLZBk-BrfY8ni0u-56">
          <mxGeometry x="-0.2619" y="1" relative="1" as="geometry">
            <mxPoint as="offset" />
          </mxGeometry>
        </mxCell>
        <mxCell id="FbwTpNLZBk-BrfY8ni0u-57" value="" style="endArrow=classic;html=1;rounded=0;entryX=0.881;entryY=1.008;entryDx=0;entryDy=0;entryPerimeter=0;" edge="1" parent="1" target="FbwTpNLZBk-BrfY8ni0u-21">
          <mxGeometry width="50" height="50" relative="1" as="geometry">
            <mxPoint x="744.9999999999999" y="350" as="sourcePoint" />
            <mxPoint x="769.9999999999999" y="500" as="targetPoint" />
            <Array as="points">
              <mxPoint x="666.9999999999999" y="350" />
            </Array>
          </mxGeometry>
        </mxCell>
        <mxCell id="FbwTpNLZBk-BrfY8ni0u-58" value="" style="endArrow=classic;html=1;rounded=0;entryX=0.881;entryY=1.008;entryDx=0;entryDy=0;entryPerimeter=0;" edge="1" parent="1">
          <mxGeometry width="50" height="50" relative="1" as="geometry">
            <mxPoint x="743.9999999999999" y="350" as="sourcePoint" />
            <mxPoint x="821.9999999999999" y="311" as="targetPoint" />
            <Array as="points">
              <mxPoint x="821.9999999999999" y="350" />
            </Array>
          </mxGeometry>
        </mxCell>
        <mxCell id="FbwTpNLZBk-BrfY8ni0u-59" value="" style="endArrow=classic;startArrow=classic;html=1;rounded=0;curved=1;" edge="1" parent="1">
          <mxGeometry width="50" height="50" relative="1" as="geometry">
            <mxPoint x="745" y="432" as="sourcePoint" />
            <mxPoint x="310" y="431" as="targetPoint" />
            <Array as="points">
              <mxPoint x="520" y="520" />
            </Array>
          </mxGeometry>
        </mxCell>
        <mxCell id="FbwTpNLZBk-BrfY8ni0u-60" value="&lt;b&gt;Deployer&lt;/b&gt;" style="rounded=0;whiteSpace=wrap;html=1;align=left;" vertex="1" parent="1">
          <mxGeometry x="135" y="225" width="99" height="40" as="geometry" />
        </mxCell>
        <mxCell id="gEsfyHYxPAKIMErTJ0Sl-172" value="" style="shape=image;verticalLabelPosition=bottom;labelBackgroundColor=default;verticalAlign=top;aspect=fixed;imageAspect=0;image=https://software-devops.com/wp-content/uploads/2021/04/ansible-logo-830x237.png;clipPath=inset(0% 53% 0% 18.67%);" parent="1" vertex="1">
          <mxGeometry x="193.58" y="225.00000000000003" width="40.42" height="40.9" as="geometry" />
        </mxCell>
        <mxCell id="FbwTpNLZBk-BrfY8ni0u-61" value="" style="group" vertex="1" connectable="0" parent="1">
          <mxGeometry x="-140" width="60.150000000000006" height="84" as="geometry" />
        </mxCell>
        <mxCell id="gEsfyHYxPAKIMErTJ0Sl-161" value="" style="shape=cylinder3;whiteSpace=wrap;html=1;boundedLbl=1;backgroundOutline=1;size=15;" parent="FbwTpNLZBk-BrfY8ni0u-61" vertex="1">
          <mxGeometry width="60.15" height="50" as="geometry" />
        </mxCell>
        <mxCell id="gEsfyHYxPAKIMErTJ0Sl-178" value="&lt;b&gt;Container&lt;/b&gt;&lt;div&gt;&lt;b&gt;Registry&lt;/b&gt;&lt;/div&gt;" style="text;html=1;align=center;verticalAlign=middle;whiteSpace=wrap;rounded=0;" parent="FbwTpNLZBk-BrfY8ni0u-61" vertex="1">
          <mxGeometry x="0.14999999999997726" y="54" width="60" height="30" as="geometry" />
        </mxCell>
        <mxCell id="FbwTpNLZBk-BrfY8ni0u-62" value="" style="group" vertex="1" connectable="0" parent="1">
          <mxGeometry x="-150" y="351.00000000000006" width="60" height="93.99999999999997" as="geometry" />
        </mxCell>
        <mxCell id="gEsfyHYxPAKIMErTJ0Sl-179" value="&lt;b&gt;Github&lt;/b&gt;&lt;div&gt;&lt;b&gt;Actions&lt;/b&gt;&lt;/div&gt;" style="text;html=1;align=center;verticalAlign=middle;whiteSpace=wrap;rounded=0;" parent="FbwTpNLZBk-BrfY8ni0u-62" vertex="1">
          <mxGeometry x="10" y="-121.32" width="60" height="30" as="geometry" />
        </mxCell>
        <mxCell id="gEsfyHYxPAKIMErTJ0Sl-164" value="" style="shape=image;verticalLabelPosition=bottom;labelBackgroundColor=default;verticalAlign=top;aspect=fixed;imageAspect=0;image=https://vectorseek.com/wp-content/uploads/2023/09/GitHub-Actions-Logo-Vector.svg-.png;imageBorder=none;" parent="FbwTpNLZBk-BrfY8ni0u-62" vertex="1">
          <mxGeometry x="10" y="-181.32000000000002" width="60" height="60" as="geometry" />
        </mxCell>
        <mxCell id="FbwTpNLZBk-BrfY8ni0u-63" value="" style="group" vertex="1" connectable="0" parent="1">
          <mxGeometry x="10" y="163.84000000000006" width="70" height="96" as="geometry" />
        </mxCell>
        <mxCell id="gEsfyHYxPAKIMErTJ0Sl-174" value="" style="shape=image;verticalLabelPosition=bottom;labelBackgroundColor=default;verticalAlign=top;aspect=fixed;imageAspect=0;image=https://pngimg.com/uploads/github/github_PNG80.png;shadow=0;imageBorder=none;imageBackground=none;" parent="FbwTpNLZBk-BrfY8ni0u-63" vertex="1">
          <mxGeometry width="69.07" height="70" as="geometry" />
        </mxCell>
        <mxCell id="gEsfyHYxPAKIMErTJ0Sl-176" value="&lt;b&gt;Github&lt;/b&gt;" style="text;html=1;align=center;verticalAlign=middle;whiteSpace=wrap;rounded=0;" parent="FbwTpNLZBk-BrfY8ni0u-63" vertex="1">
          <mxGeometry y="70" width="70" height="26" as="geometry" />
        </mxCell>
        <mxCell id="FbwTpNLZBk-BrfY8ni0u-64" value="System Admin&lt;div&gt;&lt;br&gt;&lt;/div&gt;" style="shape=umlActor;verticalLabelPosition=bottom;verticalAlign=top;html=1;outlineConnect=0;" vertex="1" parent="1">
          <mxGeometry x="25" y="-2.842170943040401e-14" width="30" height="60" as="geometry" />
        </mxCell>
        <mxCell id="FbwTpNLZBk-BrfY8ni0u-75" value="" style="group" vertex="1" connectable="0" parent="1">
          <mxGeometry x="129.5" y="-10" width="110" height="80" as="geometry" />
        </mxCell>
        <mxCell id="FbwTpNLZBk-BrfY8ni0u-73" value="" style="sketch=0;pointerEvents=1;shadow=0;dashed=0;html=1;strokeColor=none;fillColor=#434445;aspect=fixed;labelPosition=center;verticalLabelPosition=bottom;verticalAlign=top;align=center;outlineConnect=0;shape=mxgraph.vvd.wi_fi;" vertex="1" parent="FbwTpNLZBk-BrfY8ni0u-75">
          <mxGeometry x="30" width="50" height="50" as="geometry" />
        </mxCell>
        <mxCell id="FbwTpNLZBk-BrfY8ni0u-74" value="WIFI NETWORK" style="text;html=1;align=center;verticalAlign=middle;resizable=0;points=[];autosize=1;strokeColor=none;fillColor=none;" vertex="1" parent="FbwTpNLZBk-BrfY8ni0u-75">
          <mxGeometry y="50" width="110" height="30" as="geometry" />
        </mxCell>
        <mxCell id="FbwTpNLZBk-BrfY8ni0u-76" value="" style="endArrow=classic;startArrow=classic;html=1;rounded=0;entryX=0.506;entryY=0.963;entryDx=0;entryDy=0;entryPerimeter=0;" edge="1" parent="1" target="FbwTpNLZBk-BrfY8ni0u-74">
          <mxGeometry width="50" height="50" relative="1" as="geometry">
            <mxPoint x="185" y="130" as="sourcePoint" />
            <mxPoint x="100" y="170" as="targetPoint" />
          </mxGeometry>
        </mxCell>
        <mxCell id="FbwTpNLZBk-BrfY8ni0u-77" value="" style="endArrow=classic;startArrow=classic;html=1;rounded=0;exitX=1;exitY=0.3333333333333333;exitDx=0;exitDy=0;exitPerimeter=0;entryX=0.01;entryY=0.6;entryDx=0;entryDy=0;entryPerimeter=0;" edge="1" parent="1" source="FbwTpNLZBk-BrfY8ni0u-64" target="FbwTpNLZBk-BrfY8ni0u-73">
          <mxGeometry width="50" height="50" relative="1" as="geometry">
            <mxPoint x="70" y="140" as="sourcePoint" />
            <mxPoint x="161" y="13" as="targetPoint" />
          </mxGeometry>
        </mxCell>
        <mxCell id="FbwTpNLZBk-BrfY8ni0u-78" value="" style="endArrow=none;dashed=1;html=1;rounded=0;exitX=0.25;exitY=0;exitDx=0;exitDy=0;" edge="1" parent="1" source="gEsfyHYxPAKIMErTJ0Sl-7" target="FbwTpNLZBk-BrfY8ni0u-64">
          <mxGeometry width="50" height="50" relative="1" as="geometry">
            <mxPoint x="40" y="180" as="sourcePoint" />
            <mxPoint x="90" y="130" as="targetPoint" />
          </mxGeometry>
        </mxCell>
        <mxCell id="FbwTpNLZBk-BrfY8ni0u-79" value="Via SSH" style="edgeLabel;html=1;align=center;verticalAlign=middle;resizable=0;points=[];" vertex="1" connectable="0" parent="FbwTpNLZBk-BrfY8ni0u-78">
          <mxGeometry x="-0.0063" y="3" relative="1" as="geometry">
            <mxPoint as="offset" />
          </mxGeometry>
        </mxCell>
        <mxCell id="FbwTpNLZBk-BrfY8ni0u-80" value="" style="endArrow=classic;html=1;rounded=0;exitX=1;exitY=0;exitDx=0;exitDy=20;exitPerimeter=0;" edge="1" parent="1" source="gEsfyHYxPAKIMErTJ0Sl-161">
          <mxGeometry width="50" height="50" relative="1" as="geometry">
            <mxPoint x="-15" y="20" as="sourcePoint" />
            <mxPoint x="25" y="20" as="targetPoint" />
          </mxGeometry>
        </mxCell>
        <mxCell id="FbwTpNLZBk-BrfY8ni0u-81" value="Pulls Images" style="edgeLabel;html=1;align=center;verticalAlign=middle;resizable=0;points=[];" vertex="1" connectable="0" parent="FbwTpNLZBk-BrfY8ni0u-80">
          <mxGeometry x="-0.1254" y="1" relative="1" as="geometry">
            <mxPoint y="1" as="offset" />
          </mxGeometry>
        </mxCell>
      </root>
    </mxGraphModel>
  </diagram>
</mxfile>
